<svg width="16" height="16" viewBox="0 0 16 16" fill="none" xmlns="http://www.w3.org/2000/svg">
<path fill-rule="evenodd" clip-rule="evenodd" d="M10 3.5C10 3.36739 9.94732 3.24021 9.85355 3.14645C9.75979 3.05268 9.63261 3 9.5 3H1.5C1.36739 3 1.24021 3.05268 1.14645 3.14645C1.05268 3.24021 1 3.36739 1 3.5V12.5C1 12.6326 1.05268 12.7598 1.14645 12.8536C1.24021 12.9473 1.36739 13 1.5 13H9.5C9.63261 13 9.75979 12.9473 9.85355 12.8536C9.94732 12.7598 10 12.6326 10 12.5V10.5C10 10.3674 10.0527 10.2402 10.1464 10.1464C10.2402 10.0527 10.3674 10 10.5 10C10.6326 10 10.7598 10.0527 10.8536 10.1464C10.9473 10.2402 11 10.3674 11 10.5V12.5C11 12.8978 10.842 13.2794 10.5607 13.5607C10.2794 13.842 9.89782 14 9.5 14H1.5C1.10218 14 0.720644 13.842 0.43934 13.5607C0.158035 13.2794 0 12.8978 0 12.5L0 3.5C0 3.10218 0.158035 2.72064 0.43934 2.43934C0.720644 2.15804 1.10218 2 1.5 2H9.5C9.89782 2 10.2794 2.15804 10.5607 2.43934C10.842 2.72064 11 3.10218 11 3.5V5.5C11 5.63261 10.9473 5.75979 10.8536 5.85355C10.7598 5.94732 10.6326 6 10.5 6C10.3674 6 10.2402 5.94732 10.1464 5.85355C10.0527 5.75979 10 5.63261 10 5.5V3.5Z" fill="#E9F5B9"/>
<path fill-rule="evenodd" clip-rule="evenodd" d="M4.14598 8.35401C4.09941 8.30756 4.06247 8.25238 4.03727 8.19164C4.01206 8.13089 3.99908 8.06577 3.99908 8.00001C3.99908 7.93424 4.01206 7.86912 4.03727 7.80837C4.06247 7.74763 4.09941 7.69245 4.14598 7.64601L7.14598 4.64601C7.23986 4.55212 7.3672 4.49937 7.49998 4.49937C7.63275 4.49937 7.76009 4.55212 7.85398 4.64601C7.94787 4.73989 8.00061 4.86723 8.00061 5.00001C8.00061 5.13278 7.94787 5.26012 7.85398 5.35401L5.70698 7.50001H14.5C14.6326 7.50001 14.7598 7.55268 14.8535 7.64645C14.9473 7.74022 15 7.8674 15 8.00001C15 8.13261 14.9473 8.25979 14.8535 8.35356C14.7598 8.44733 14.6326 8.50001 14.5 8.50001H5.70698L7.85398 10.646C7.90047 10.6925 7.93734 10.7477 7.9625 10.8084C7.98766 10.8692 8.00061 10.9343 8.00061 11C8.00061 11.0658 7.98766 11.1309 7.9625 11.1916C7.93734 11.2523 7.90047 11.3075 7.85398 11.354C7.80749 11.4005 7.7523 11.4374 7.69156 11.4625C7.63082 11.4877 7.56572 11.5006 7.49998 11.5006C7.43423 11.5006 7.36913 11.4877 7.30839 11.4625C7.24766 11.4374 7.19247 11.4005 7.14598 11.354L4.14598 8.35401Z" fill="#E9F5B9"/>
</svg>
